<?xml version="1.0" encoding="utf-8"?>
<svg viewBox="-18 -30 222 222" xmlns="http://www.w3.org/2000/svg">
  <g transform="matrix(1, 0, 0, 1, -82.749996, -116.130529)">
    <polygon class="st0" points="252.3,145.8 241.7,163.9 260.9,197.6 241.7,230.9 252,249.4 282.2,197.7 &#9;" style="fill: rgb(22, 211, 238);"/>
    <polygon class="st0" points="111.7,163.9 101.1,145.8 71.2,197.7 101.3,249.4 111.7,230.9 92.4,197.6 &#9;" style="fill: rgb(22, 211, 238);"/>
    <path class="st0" d="M209.9,139.5h-66.7l-33.8,58.1l33.8,58.1h66.7l33.6-58.1L209.9,139.5z M177.6,143.2h1.1h29.2l-4.4,7.4h-24.8 h-1.1h-27.9l-4.4-7.4H177.6z M178.8,251.4h-1.1h-32.4l4.4-7.4h27.9h1.1h24.8l4.4,7.4H178.8z M199.3,237.4h-45.5l-23.1-39.8 l23.1-39.8h45.5l23,39.8L199.3,237.4z" style="fill: rgb(22, 211, 238);"/>
  </g>
</svg>